<svg width="41" height="41" viewBox="0 0 41 41" fill="none" xmlns="http://www.w3.org/2000/svg">
<rect x="0.5" y="0.5" width="40" height="40" rx="11.5" fill="white" stroke="#E8ECF4"/>
<rect width="19" height="19" transform="translate(10 11)" fill="white"/>
<path d="M23.1575 13.3671C23.0656 13.275 22.9564 13.2019 22.8362 13.152C22.7159 13.1021 22.5871 13.0764 22.4569 13.0764C22.3267 13.0764 22.1978 13.1021 22.0776 13.152C21.9574 13.2019 21.8482 13.275 21.7563 13.3671L15.1775 19.9459C15.1041 20.0191 15.0459 20.1061 15.0062 20.2019C14.9664 20.2977 14.946 20.4003 14.946 20.504C14.946 20.6077 14.9664 20.7104 15.0062 20.8061C15.0459 20.9019 15.1041 20.9889 15.1775 21.0621L21.7563 27.6409C22.1442 28.0288 22.7696 28.0288 23.1575 27.6409C23.5454 27.253 23.5454 26.6276 23.1575 26.2396L17.4259 20.5001L23.1654 14.7605C23.5454 14.3805 23.5454 13.7471 23.1575 13.3671Z" fill="#2F2F2F" stroke="#2F2F2F" stroke-width="0.2"/>
</svg>
