<svg width="25" height="23" viewBox="0 0 25 23" fill="none" xmlns="http://www.w3.org/2000/svg">
<path fill-rule="evenodd" clip-rule="evenodd" d="M15.3135 1.91675C18.8469 1.91675 20.874 3.52579 20.874 6.32892V20.2592C20.874 20.8438 20.5469 21.37 19.9969 21.6642C19.449 21.9593 18.7885 21.9651 18.2344 21.6776L12.026 18.4509L5.76042 21.6843C5.48958 21.8242 5.19271 21.8951 4.89479 21.8951C4.5875 21.8951 4.28021 21.8194 4.00104 21.668C3.45208 21.3738 3.125 20.8477 3.125 20.264V6.15354C3.125 3.46062 5.15313 1.91675 8.68958 1.91675H15.3135ZM15.3135 3.35425H8.68958C6.03438 3.35425 4.6875 4.29533 4.6875 6.15354V20.264C4.6875 20.3541 4.74375 20.403 4.79063 20.4279C4.8375 20.4547 4.91146 20.4739 4.99688 20.4298L11.6448 16.999C11.8823 16.8773 12.1729 16.8763 12.4115 17L19.0021 20.425C19.0885 20.471 19.1625 20.45 19.2094 20.4241C19.2563 20.3982 19.3115 20.3493 19.3115 20.2592L19.3111 6.21971C19.3032 5.3949 19.1297 3.35425 15.3135 3.35425ZM15.7706 8.36489C16.2019 8.36489 16.5519 8.68689 16.5519 9.08364C16.5519 9.48039 16.2019 9.80239 15.7706 9.80239H8.14771C7.71646 9.80239 7.36646 9.48039 7.36646 9.08364C7.36646 8.68689 7.71646 8.36489 8.14771 8.36489H15.7706Z" fill="black"/>
</svg>
