<svg width="24" height="24" viewBox="0 0 24 24" fill="none" xmlns="http://www.w3.org/2000/svg">
<path fill-rule="evenodd" clip-rule="evenodd" d="M19.8399 18.1932C19.8399 21.4892 15.3199 21.8702 11.9209 21.8702L11.6777 21.8699C9.5121 21.8647 3.9999 21.728 3.9999 18.1732C3.9999 14.9444 8.33825 14.5129 11.7114 14.4967L12.1641 14.4964C14.3295 14.5016 19.8399 14.6383 19.8399 18.1932ZM11.9209 15.9962C7.6599 15.9962 5.4999 16.7282 5.4999 18.1732C5.4999 19.6312 7.6599 20.3702 11.9209 20.3702C16.1809 20.3702 18.3399 19.6382 18.3399 18.1932C18.3399 16.7352 16.1809 15.9962 11.9209 15.9962ZM11.9209 1.99976C14.8489 1.99976 17.2299 4.38176 17.2299 7.30976C17.2299 10.2378 14.8489 12.6188 11.9209 12.6188H11.8889C8.9669 12.6098 6.5999 10.2268 6.60987 7.30676C6.60987 4.38176 8.9919 1.99976 11.9209 1.99976ZM11.9209 3.42776C9.7799 3.42776 8.03788 5.16876 8.03788 7.30976C8.0309 9.44376 9.7599 11.1838 11.8919 11.1918L11.9209 11.9058V11.1918C14.0609 11.1918 15.8019 9.44976 15.8019 7.30976C15.8019 5.16876 14.0609 3.42776 11.9209 3.42776Z" fill="black"/>
</svg>
